<svg width="505.9" height="96" viewBox="0 0 505.9 96" xmlns="http://www.w3.org/2000/svg"><g id="svgGroup" stroke-linecap="round" fill-rule="evenodd" font-size="9pt" stroke="#e52d27" stroke-width="0.25mm" fill="#e52d27" style="stroke:#e52d27;stroke-width:0.25mm;fill:#e52d27"><path d="M 109.2 74 L 100.2 74 L 100.2 0 L 109.2 0 L 109.2 30.3 Q 112 26.2 116.3 23.5 A 17.572 17.572 0 0 1 123.425 20.991 A 22.595 22.595 0 0 1 126.4 20.8 A 23.225 23.225 0 0 1 131.465 21.318 Q 136.559 22.456 139.55 26.1 Q 143.675 31.126 143.888 39.209 A 33.764 33.764 0 0 1 143.9 40.1 L 143.9 74 L 134.9 74 L 134.9 41.1 Q 134.9 35.5 132.3 32.1 A 8.42 8.42 0 0 0 126.142 28.753 A 11.979 11.979 0 0 0 125 28.7 A 13.23 13.23 0 0 0 118.287 30.566 A 17.586 17.586 0 0 0 116.25 31.95 Q 112.1 35.2 109.2 39.6 L 109.2 74 Z M 363.5 74 L 354.5 74 L 354.5 22 L 363.2 22 L 363.2 30.7 Q 366 26.5 370.35 23.65 A 17.316 17.316 0 0 1 377.456 21.025 A 22.629 22.629 0 0 1 380.7 20.8 A 23.225 23.225 0 0 1 385.765 21.318 Q 390.859 22.456 393.85 26.1 Q 397.975 31.126 398.188 39.209 A 33.764 33.764 0 0 1 398.2 40.1 L 398.2 74 L 389.2 74 L 389.2 41.1 A 19.265 19.265 0 0 0 388.858 37.359 Q 388.419 35.145 387.419 33.397 A 10.966 10.966 0 0 0 386.55 32.1 A 8.579 8.579 0 0 0 380.273 28.747 A 12.061 12.061 0 0 0 379.2 28.7 A 13.122 13.122 0 0 0 372.351 30.664 A 17.353 17.353 0 0 0 370.5 31.95 Q 366.4 35.2 363.5 39.6 L 363.5 74 Z M 289 74 L 279.5 74 L 279.5 4 L 321 4 L 321 12.2 L 289 12.2 L 289 33.6 L 315.7 33.6 L 315.7 41.4 L 289 41.4 L 289 74 Z M 31 74 L 21.5 74 L 21.5 12.4 L 0 12.4 L 0 4 L 52.5 4 L 52.5 12.4 L 31 12.4 L 31 74 Z M 448.1 27.2 L 448.1 0 L 457.1 0 L 457.1 61.4 A 12.15 12.15 0 0 0 457.202 63.036 Q 457.534 65.47 458.95 66.35 Q 460.8 67.5 463 67.5 L 461.1 74.5 Q 451.6 74.5 449.5 66.9 Q 447.3 70 443.35 72.6 Q 439.4 75.2 433.4 75.2 Q 427 75.2 421.7 71.9 A 22.692 22.692 0 0 1 414.162 64.109 A 27.622 27.622 0 0 1 413.3 62.55 A 27.533 27.533 0 0 1 410.712 54.608 A 37.221 37.221 0 0 1 410.2 48.3 A 33.94 33.94 0 0 1 411.089 40.386 A 27.963 27.963 0 0 1 413.35 34.2 A 27.291 27.291 0 0 1 417.969 27.609 A 24.186 24.186 0 0 1 421.75 24.4 Q 427 20.8 433.3 20.8 A 21.642 21.642 0 0 1 437.572 21.202 A 15.942 15.942 0 0 1 442.25 22.9 A 34.343 34.343 0 0 1 444.83 24.489 Q 446.054 25.324 447.025 26.174 A 16.59 16.59 0 0 1 448.1 27.2 Z M 228.1 96 L 219.1 96 L 219.1 35.3 A 11.015 11.015 0 0 0 218.973 33.564 Q 218.642 31.498 217.45 30.45 A 5.718 5.718 0 0 0 214.66 29.128 A 7.991 7.991 0 0 0 213.2 29 L 215.1 22 Q 220.962 22 224.022 24.964 A 10.15 10.15 0 0 1 226.6 29.3 Q 227.555 27.867 229.652 25.977 A 38.58 38.58 0 0 1 229.85 25.8 A 18.902 18.902 0 0 1 232.551 23.816 A 25.569 25.569 0 0 1 235.45 22.3 A 16.955 16.955 0 0 1 240.009 21.011 A 21.886 21.886 0 0 1 243.1 20.8 Q 249.1 20.8 254.35 23.95 A 22.329 22.329 0 0 1 261.528 30.917 A 27.464 27.464 0 0 1 262.8 33.05 Q 266 39 266 47.5 Q 266 55.8 262.8 62.05 A 27.846 27.846 0 0 1 258.866 67.882 A 23.029 23.029 0 0 1 254.45 71.75 Q 249.3 75.2 243.3 75.2 Q 238.7 75.2 234.7 73.35 A 30.352 30.352 0 0 1 231.284 71.511 Q 229.491 70.384 228.1 69.1 L 228.1 96 Z M 88.9 23.9 L 86.2 31.5 A 30.422 30.422 0 0 0 83.296 30.224 A 23.42 23.42 0 0 0 80.85 29.45 A 20.543 20.543 0 0 0 77.807 28.924 A 26.355 26.355 0 0 0 75.2 28.8 A 15.889 15.889 0 0 0 67.947 30.443 A 16.132 16.132 0 0 0 63.45 33.85 Q 58.7 38.9 58.7 47.8 A 25.192 25.192 0 0 0 59.405 53.86 A 21.45 21.45 0 0 0 60.7 57.6 A 18.564 18.564 0 0 0 63.61 62.177 A 16.275 16.275 0 0 0 66.25 64.6 Q 69.8 67.2 74.6 67.2 Q 77.765 67.2 80.168 66.61 A 15.08 15.08 0 0 0 81.1 66.35 Q 83.789 65.503 86.876 63.912 A 49.095 49.095 0 0 0 86.9 63.9 L 89.7 71.5 Q 86.6 73.2 82.75 74.2 Q 78.9 75.2 74 75.2 A 26.803 26.803 0 0 1 66.961 74.31 A 22.074 22.074 0 0 1 61.05 71.75 Q 55.5 68.3 52.5 62.15 Q 49.5 56 49.5 48 Q 49.5 40.5 52.55 34.3 Q 55.6 28.1 61.3 24.45 A 23.067 23.067 0 0 1 70.968 21.029 A 29.608 29.608 0 0 1 74.7 20.8 Q 79.1 20.8 82.45 21.6 Q 85.8 22.4 88.9 23.9 Z M 484 74 L 475 74 L 475 22 L 483.7 22 L 483.7 33.3 Q 485 30 487.2 27.15 Q 489.4 24.3 492.7 22.55 A 14.817 14.817 0 0 1 497.38 21.026 A 19.459 19.459 0 0 1 500.4 20.8 Q 501.9 20.8 503.4 20.95 A 18.972 18.972 0 0 1 504.455 21.084 Q 504.955 21.162 505.382 21.262 A 8.817 8.817 0 0 1 505.9 21.4 L 503.2 30.7 A 9.763 9.763 0 0 0 501.055 30.088 Q 499.959 29.9 498.7 29.9 A 12.958 12.958 0 0 0 492.07 31.746 A 15.609 15.609 0 0 0 491.65 32 Q 488.322 34.086 486.178 38.442 A 22.927 22.927 0 0 0 486.15 38.5 Q 484.387 42.107 484.07 47.328 A 39.09 39.09 0 0 0 484 49.7 L 484 74 Z M 168 71.75 A 24.559 24.559 0 0 0 172.598 73.84 Q 176.653 75.2 181.3 75.2 Q 188.7 75.2 194.55 71.8 Q 200.4 68.4 203.8 62.25 A 26.255 26.255 0 0 0 206.453 55.109 A 34.184 34.184 0 0 0 207.2 47.8 A 34.542 34.542 0 0 0 206.715 41.891 A 25.795 25.795 0 0 0 203.75 33.45 Q 200.3 27.4 194.45 24.1 A 24.848 24.848 0 0 0 189.809 22.073 A 27.738 27.738 0 0 0 181.3 20.8 A 31.325 31.325 0 0 0 179.72 20.839 A 26.169 26.169 0 0 0 168.1 24.1 Q 162.2 27.4 158.8 33.5 A 26.023 26.023 0 0 0 156.051 41.09 A 35.006 35.006 0 0 0 155.4 48 A 34.82 34.82 0 0 0 155.665 52.354 A 27.451 27.451 0 0 0 158.75 62.15 Q 162.1 68.3 168 71.75 Z M 338.5 74 L 329.5 74 L 329.5 22 L 338.5 22 L 338.5 74 Z M 181.3 67.2 Q 189.2 67.2 193.6 61.85 A 18.802 18.802 0 0 0 197.419 53.76 A 27.105 27.105 0 0 0 198 48 Q 198 42.8 195.8 38.45 A 19.198 19.198 0 0 0 191.628 32.881 A 18.17 18.17 0 0 0 189.85 31.45 Q 186.1 28.8 181.3 28.8 A 19.249 19.249 0 0 0 176.074 29.472 A 14.037 14.037 0 0 0 169 34 A 17.878 17.878 0 0 0 165.326 41.374 Q 164.6 44.306 164.6 47.8 Q 164.6 53 166.8 57.45 A 19.437 19.437 0 0 0 170.33 62.49 A 17.627 17.627 0 0 0 172.75 64.55 Q 176.5 67.2 181.3 67.2 Z M 228.1 35.4 L 228.1 61 Q 230.7 63.7 234.1 65.45 Q 237.5 67.2 241.5 67.2 Q 248.194 67.2 252.417 62.016 A 17.38 17.38 0 0 0 252.55 61.85 A 18.792 18.792 0 0 0 256.044 54.544 Q 256.705 51.855 256.788 48.708 A 34.555 34.555 0 0 0 256.8 47.8 Q 256.8 41.8 254.65 37.5 Q 252.5 33.2 248.95 30.9 Q 245.4 28.6 241.1 28.6 A 14.741 14.741 0 0 0 235.473 29.663 A 14.054 14.054 0 0 0 233.35 30.75 Q 229.9 32.9 228.1 35.4 Z M 448.1 60.9 L 448.1 35.1 A 15.847 15.847 0 0 0 445.989 32.927 Q 444.868 31.964 443.469 31.066 A 28.139 28.139 0 0 0 442.8 30.65 Q 439.4 28.6 435.3 28.6 A 14.946 14.946 0 0 0 430.344 29.4 A 13.385 13.385 0 0 0 426.9 31.2 A 16.69 16.69 0 0 0 421.73 37.35 A 19.924 19.924 0 0 0 421.35 38.15 A 22.19 22.19 0 0 0 419.61 44.514 A 28.113 28.113 0 0 0 419.4 48 A 24.757 24.757 0 0 0 419.993 53.519 A 20.327 20.327 0 0 0 421.5 57.85 A 18.205 18.205 0 0 0 424.54 62.363 A 16.122 16.122 0 0 0 427.25 64.7 Q 430.9 67.2 435.4 67.2 Q 439.1 67.2 442.45 65.45 Q 445.8 63.7 448.1 60.9 Z M 329.637 11.288 A 5.973 5.973 0 0 0 334 13.1 A 8.175 8.175 0 0 0 335.496 12.969 A 5.647 5.647 0 0 0 338.6 11.35 Q 340.3 9.6 340.3 6.8 A 7.26 7.26 0 0 0 340.3 6.719 A 6.06 6.06 0 0 0 338.45 2.35 A 7.395 7.395 0 0 0 338.392 2.293 A 6.059 6.059 0 0 0 334 0.5 A 8.264 8.264 0 0 0 332.344 0.658 A 5.661 5.661 0 0 0 329.4 2.2 A 5.588 5.588 0 0 0 327.929 4.832 A 7.987 7.987 0 0 0 327.7 6.8 A 5.992 5.992 0 0 0 328.192 9.219 A 6.643 6.643 0 0 0 329.55 11.2 A 7.466 7.466 0 0 0 329.637 11.288 Z" vector-effect="non-scaling-stroke"/></g></svg>